<svg width="24" height="24" viewBox="0 0 24 24" fill="none" xmlns="http://www.w3.org/2000/svg">
<path d="M15.4444 11H4.55556C3.69645 11 3 11.8954 3 13V20C3 21.1046 3.69645 22 4.55556 22H15.4444C16.3036 22 17 21.1046 17 20V13C17 11.8954 16.3036 11 15.4444 11Z" stroke="black" stroke-width="2" stroke-linecap="round" stroke-linejoin="round"/>
<path d="M12 11V7C12 5.67392 12.5268 4.40215 13.4645 3.46447C14.4021 2.52678 15.6739 2 17 2C18.3261 2 19.5979 2.52678 20.5355 3.46447C21.4732 4.40215 22 5.67392 22 7V11" stroke="black" stroke-width="2" stroke-linecap="round" stroke-linejoin="round"/>
</svg>
